<svg xmlns="http://www.w3.org/2000/svg" id="caution" width="100" height="100" version="1.1">
  <g id="layer1" transform="translate(0 -952.362)">
    <g id="g3973" transform="rotate(-1.406 171.811 5833.11)">
      <path id="path3965" d="m 128.26912,957.2091 c -0.0986,0 -0.13278,0.067 -0.0793,0.1534 0.0579,0.094 -0.27335,0.1198 -0.81966,0.063 -1.68121,-0.1735 -1.89573,-0.071 -4.20932,2.0148 -0.44209,0.3986 -0.80379,0.819 -0.80379,0.936 0,0.117 -0.065,0.2168 -0.14807,0.2168 -0.32456,0 -0.34886,0.5684 -0.0423,1.0735 0.17723,0.292 0.37517,0.7773 0.43892,1.0788 0.0637,0.3014 0.18908,0.592 0.27498,0.6451 0.0859,0.053 0.15335,0.2367 0.15335,0.4072 0,0.387 0.48391,1.4716 0.98888,2.2263 0.67295,1.0056 1.85915,3.0824 2.36378,4.13 0.269,0.5584 0.75701,1.4341 1.08405,1.946 0.56174,0.8792 1.13616,2.0489 1.66047,3.3844 0.12789,0.3257 0.54192,1.1253 0.92013,1.7768 0.3782,0.6515 1.0521,2.0222 1.50181,3.0459 1.10223,2.5093 2.44365,5.2225 2.92961,5.9386 0.219,0.3227 0.39661,0.7 0.39661,0.8355 0,0.1355 0.0649,0.2485 0.14278,0.2485 0.0778,0 0.35173,0.3998 0.60813,0.8884 0.25638,0.4886 0.76855,1.3834 1.13694,1.9883 0.36839,0.605 0.96083,1.6711 1.31673,2.3691 0.74228,1.4559 1.21021,2.3085 2.18399,3.9767 0.38032,0.6514 1.15663,2.13629 1.7292,3.29969 0.57257,1.16341 1.29447,2.61021 1.6023,3.21521 0.30782,0.6049 1.14214,2.2421 1.85083,3.6382 0.70871,1.3961 1.65065,3.2236 2.09409,4.0613 2.24709,4.2446 2.26525,4.2742 4.74871,8.2071 0.14693,0.2327 0.34733,0.5753 0.44948,0.7615 0.83833,1.5275 1.37833,2.4186 1.63402,2.6969 0.16577,0.1804 0.30143,0.4198 0.30143,0.5341 0,0.1143 0.0571,0.2334 0.12691,0.2644 0.22665,0.1007 0.9848,1.3805 1.63931,2.7657 1.79134,3.7911 4.27735,8.544 5.25637,10.0526 0.60538,0.9329 1.09992,1.7423 1.09992,1.798 0,0.056 0.22845,0.435 0.50766,0.8408 0.27921,0.4058 0.50766,0.7805 0.50766,0.8355 0,0.2072 0.9516,1.5362 1.48066,2.0677 0.30262,0.304 0.65662,0.5137 0.78264,0.4653 0.12602,-0.048 0.5221,0.087 0.88311,0.3014 0.361,0.2142 0.96415,0.5514 1.33789,0.7509 0.82394,0.4401 0.86831,0.4457 1.93544,0.2169 1.06185,-0.2278 1.46381,-0.683 2.4907,-2.808 0.42059,-0.8704 0.91441,-1.6592 1.09463,-1.7557 0.18022,-0.096 0.75106,-0.8209 1.26914,-1.6075 0.51809,-0.7867 1.01023,-1.3901 1.09464,-1.3379 0.0844,0.052 0.15644,-0.01 0.15864,-0.1269 0.002,-0.1219 0.36391,-0.7644 0.80379,-1.4331 0.43991,-0.6687 0.98888,-1.5339 1.22155,-1.9196 0.23268,-0.3857 0.53727,-0.8288 0.67688,-0.9889 0.2894,-0.3317 0.66828,-0.9699 1.19511,-2.0095 0.20046,-0.3955 0.44634,-0.7191 0.54467,-0.7191 0.0983,0 0.12999,-0.05 0.0688,-0.1111 -0.0612,-0.061 -0.0455,-0.1945 0.037,-0.2961 0.0825,-0.1016 0.35926,-0.5658 0.61341,-1.0312 0.25414,-0.4653 0.5839,-0.9984 0.73505,-1.1845 0.15113,-0.1862 0.38185,-0.5288 0.51295,-0.7615 0.13111,-0.2327 0.51146,-0.7657 0.84609,-1.1845 0.33461,-0.4189 0.68467,-0.8901 0.77735,-1.0471 0.42303,-0.7166 2.1549,-3.1576 2.61761,-3.6911 0.28254,-0.3257 0.51294,-0.6459 0.51294,-0.7086 2.1e-4,-0.063 0.1796,-0.3292 0.39661,-0.5923 0.21701,-0.263 0.56866,-0.8186 0.78264,-1.2374 0.7794,-1.5254 0.91915,-1.7833 1.09463,-1.9724 0.46465,-0.5009 0.78732,-0.9463 1.10522,-1.5336 0.19045,-0.3518 0.42359,-0.7541 0.51294,-0.8937 0.0893,-0.1396 0.77524,-1.5483 1.52826,-3.1305 0.75301,-1.5822 1.44066,-2.991 1.52826,-3.1306 0.0876,-0.1396 0.23191,-0.4248 0.32257,-0.6345 0.34939,-0.8082 0.88822,-1.8713 1.60759,-3.1729 0.4115,-0.7446 0.87617,-1.6012 1.03117,-1.9037 0.15501,-0.3025 0.35624,-0.55001 0.4442,-0.55001 0.0879,0 0.11423,-0.071 0.0635,-0.1533 -0.0507,-0.082 0.0637,-0.3414 0.24854,-0.5764 0.18487,-0.2351 0.33315,-0.4815 0.33315,-0.55 0,-0.069 0.38074,-0.75499 0.8461,-1.52829 0.46535,-0.7731 0.84609,-1.4562 0.84609,-1.5123 0,-0.056 0.29232,-0.5329 0.65044,-1.063 0.70173,-1.0386 2.33308,-3.7157 2.72337,-4.4737 0.1318,-0.2559 0.30339,-0.4653 0.38074,-0.4653 0.0773,0 0.13749,-0.1131 0.13749,-0.2486 0,-0.1355 0.21574,-0.6114 0.47593,-1.0576 0.26019,-0.4462 0.61086,-1.1137 0.78264,-1.486 0.17175,-0.3722 0.56009,-1.0576 0.86196,-1.5229 0.30188,-0.4654 1.0988,-1.836 1.77151,-3.046 0.67271,-1.2099 1.27372,-2.2379 1.33789,-2.2844 0.0642,-0.047 0.24767,-0.3512 0.40189,-0.6769 0.15425,-0.3257 0.47214,-0.8136 0.70861,-1.0841 0.23646,-0.2704 0.42833,-0.5554 0.42833,-0.6292 0,-0.074 0.17134,-0.3259 0.38075,-0.5606 0.2094,-0.2347 0.56784,-0.7292 0.79321,-1.0999 0.22537,-0.3707 0.47537,-0.629 0.56054,-0.5764 0.18721,0.1157 1.31145,-0.9406 1.31145,-1.2321 0,-0.1136 0.0667,-0.2334 0.14806,-0.2644 0.13644,-0.052 0.92756,-1.8145 1.16338,-2.5912 0.056,-0.1844 0.47128,-0.6703 0.92013,-1.0788 l 0.81437,-0.7403 0,-1.1687 c 0,-1.1766 -0.0425,-1.2992 -1.14223,-3.2786 -0.30647,-0.5516 -2.75425,-2.7868 -3.05123,-2.7868 -0.13901,0 -0.34735,-0.1261 -0.46006,-0.2803 -0.13264,-0.1814 -0.40512,-0.2715 -0.77735,-0.2485 -0.80261,0.049 -0.84322,0.05 -1.50711,-0.042 -0.32575,-0.046 -1.01967,-0.1286 -1.54413,-0.1851 -0.52444,-0.057 -1.09555,-0.1381 -1.26914,-0.1798 -1.55368,-0.3731 -2.26871,-0.5711 -2.44839,-0.6822 -0.11644,-0.072 -0.60869,-0.1148 -1.09463,-0.095 -0.48595,0.02 -1.4029,-0.089 -2.04121,-0.2432 -0.76439,-0.1842 -1.77879,-0.2727 -2.96662,-0.2538 -0.99191,0.016 -2.09607,-0.042 -2.45368,-0.1322 -0.35759,-0.091 -1.52925,-0.2127 -2.60703,-0.2697 -1.07775,-0.057 -2.21415,-0.176 -2.52242,-0.2644 -0.30828,-0.089 -0.60965,-0.1282 -0.67159,-0.09 -0.0619,0.038 -0.83453,0 -1.71334,-0.09 -1.71424,-0.1678 -7.44527,-0.3939 -9.80413,-0.3861 -2.2666,0.01 -6.69992,0.221 -8.46095,0.4072 -1.65669,0.1752 -8.02221,0.2361 -8.27587,0.079 -0.17592,-0.1087 -2.50267,-0.2269 -6.61541,-0.3437 -1.7218,-0.049 -4.23471,-0.1321 -5.58423,-0.1798 -1.34952,-0.048 -3.67205,-0.094 -5.16118,-0.1058 -1.55568,-0.012 -3.06424,-0.1095 -3.54831,-0.2326 -0.59107,-0.1504 -0.94126,-0.164 -1.16867,-0.042 -0.1833,0.098 -0.6224,0.1238 -1.01531,0.058 -0.38213,-0.064 -1.3453,-0.1406 -2.13639,-0.1692 -0.7911,-0.029 -1.78104,-0.097 -2.19985,-0.1533 -0.41882,-0.056 -1.28402,-0.1452 -1.92487,-0.1957 -0.64085,-0.051 -1.22311,-0.1224 -1.29029,-0.1639 -0.0672,-0.042 -0.77678,-0.087 -1.58115,-0.1005 -0.80436,-0.014 -1.4648,-0.092 -1.4648,-0.1745 0,-0.082 -0.0812,-0.1481 -0.17979,-0.1481 z" style="fill:#3b3c3d"></path>
      <path id="path3963" d="m 127.80905,960.4296 c 0.15828,-8e-4 0.28902,0.035 0.37017,0.1163 0.0672,0.067 1.01091,0.1294 2.09937,0.1428 1.88548,0.023 3.71521,0.1437 5.19291,0.3331 1.31521,0.1686 1.70842,0.2044 3.29977,0.3279 0.88417,0.069 1.67298,0.1653 1.75036,0.2115 0.0774,0.046 1.29577,0.1081 2.70751,0.1375 1.41174,0.029 4.01155,0.094 5.77989,0.1428 1.76834,0.049 4.50969,0.1227 6.09188,0.1639 3.48976,0.091 6.01434,0.2185 8.37635,0.4284 1.80851,0.1607 8.22218,0.081 8.52441,-0.1058 0.52725,-0.3258 14.13157,-0.2895 16.01235,0.042 0.53309,0.094 3.76147,0.3674 6.09189,0.5182 0.97724,0.063 1.92909,0.1681 2.11523,0.2327 0.18615,0.065 0.98571,0.1345 1.7768,0.1534 1.66091,0.04 3.58104,0.2604 5.47318,0.6345 1.40762,0.2784 2.13126,0.4049 2.81856,0.4813 0.23267,0.026 0.72764,0.1249 1.09992,0.2221 0.37228,0.097 1.19528,0.2266 1.82968,0.2855 1.16721,0.1084 2.46548,0.5095 2.70222,0.8408 0.0711,0.1 0.0805,0.9847 0.0212,1.9619 -0.12016,1.978 -0.5095,3.0689 -1.53355,4.3415 -0.31215,0.388 -0.56582,0.7599 -0.56582,0.825 0,0.065 -0.20941,0.3609 -0.46535,0.661 -0.455,0.5335 -0.54632,0.6616 -1.23213,1.7028 -0.18391,0.2792 -0.63537,0.9645 -1.00474,1.5229 -1.36274,2.0603 -4.16466,6.831 -5.21935,8.884 -0.84349,1.6419 -1.98152,3.639 -2.98248,5.2458 -0.37818,0.6071 -0.77935,1.2543 -0.89369,1.4384 -0.11434,0.184 -0.48814,0.8334 -0.83023,1.4383 -0.3421,0.605 -0.86849,1.5188 -1.16867,2.0307 -0.30016,0.5119 -0.96404,1.7302 -1.47538,2.70749 -0.51135,0.9772 -1.13074,2.11941 -1.37491,2.53831 -0.56245,0.9647 -3.9978,7.9216 -3.9978,8.096 0,0.072 -0.30309,0.6318 -0.67158,1.2427 -0.36848,0.611 -0.69211,1.2124 -0.71919,1.3379 -0.027,0.1255 -0.21892,0.3675 -0.42833,0.5394 -0.20941,0.1719 -0.38074,0.391 -0.38074,0.4865 0,0.1654 -0.74091,1.4691 -1.67104,2.9349 -0.79765,1.2571 -2.78736,3.9767 -2.90845,3.9767 -0.0661,0 -0.16214,0.1332 -0.21682,0.2961 -0.0547,0.1629 -0.19824,0.4447 -0.31728,0.6293 -0.81329,1.2612 -1.23692,1.8915 -1.39077,2.057 -0.0975,0.105 -0.29402,0.3576 -0.43363,0.5659 -0.1396,0.2083 -0.37849,0.5417 -0.5288,0.7403 -0.15031,0.1986 -0.48306,0.7837 -0.74034,1.2956 -0.25728,0.5119 -0.81075,1.4637 -1.23212,2.1152 -0.42139,0.6515 -0.99467,1.6034 -1.27444,2.1153 -0.27978,0.5118 -0.80099,1.3725 -1.15809,1.9143 -0.35712,0.5417 -0.65043,1.0428 -0.65043,1.1157 0,0.073 -0.19226,0.3429 -0.42834,0.5976 -0.23608,0.2547 -0.5566,0.6674 -0.71389,0.9148 -0.3735,0.5877 -1.94471,2.7941 -2.06765,2.9032 -0.34636,0.3075 -1.16347,1.51 -1.26385,1.8614 -0.0665,0.2327 -0.27037,0.7467 -0.44949,1.1422 -0.31169,0.6884 -0.65661,0.9545 -0.66101,0.5077 -0.001,-0.1163 -0.30642,-0.5424 -0.67688,-0.9413 -0.37044,-0.3988 -0.79859,-0.9699 -0.95186,-1.2691 -0.15328,-0.2992 -0.33247,-0.5775 -0.3966,-0.624 -0.0642,-0.047 -0.33701,-0.5035 -0.60813,-1.0153 -0.27113,-0.5119 -0.90545,-1.578 -1.41193,-2.3691 -0.50647,-0.7911 -1.93908,-3.4944 -3.18343,-6.0073 -1.24435,-2.5129 -2.3334,-4.6831 -2.41666,-4.8227 -0.0833,-0.1396 -0.31235,-0.5584 -0.51294,-0.9307 -0.2006,-0.3723 -0.72035,-1.1692 -1.15281,-1.7715 -0.87107,-1.2132 -1.30688,-1.9267 -2.17869,-3.5589 -0.32311,-0.605 -0.68539,-1.2142 -0.8038,-1.3538 -0.24998,-0.2947 -1.76945,-2.762 -2.0835,-3.3844 -0.11743,-0.2326 -0.3928,-0.7276 -0.61342,-1.0999 -0.22063,-0.3723 -1.18132,-2.1998 -2.13639,-4.0612 -0.95509,-1.8614 -1.9034,-3.6509 -2.10467,-3.9767 -0.44738,-0.7241 -1.17628,-2.2401 -2.16283,-4.50021 -0.65675,-1.50449 -1.28967,-2.71099 -2.39022,-4.53709 -0.17488,-0.2902 -0.73525,-1.3231 -1.24799,-2.3004 -0.99976,-1.9055 -2.00669,-3.6678 -4.15115,-7.2605 -0.74343,-1.2455 -1.64923,-2.9836 -2.00948,-3.8656 -0.36027,-0.8821 -1.06671,-2.4152 -1.57056,-3.4056 -0.50385,-0.9903 -1.19406,-2.369 -1.53355,-3.0671 -1.84114,-3.7856 -3.58046,-7.0543 -3.98722,-7.4932 -0.15382,-0.166 -0.42122,-0.6049 -0.59756,-0.973 -0.17634,-0.3681 -0.37968,-0.6699 -0.44949,-0.6716 -0.0698,-10e-4 -0.12691,-0.079 -0.12691,-0.1745 0,-0.095 -0.18115,-0.4568 -0.4019,-0.8038 -0.22074,-0.347 -0.49632,-0.991 -0.61342,-1.4331 -0.1171,-0.442 -0.2786,-0.8037 -0.35959,-0.8037 -0.081,0 -0.14806,-0.1438 -0.14806,-0.3173 0,-0.5202 1.21256,-1.1969 1.89842,-1.2004 z" style="fill:#fcd116"></path>
      <path id="path3961" d="m 175.65574,972.8143 c -0.18313,0 -0.40925,0.016 -0.69803,0.037 -0.6839,0.05 -1.92804,0.102 -2.76567,0.1163 -1.73428,0.03 -2.03142,0.1325 -2.18398,0.7404 -0.10673,0.4252 0.0996,1.4773 0.37545,1.9037 0.14692,0.2271 0.74552,0.4141 1.28501,0.4019 0.30276,-0.01 0.31237,0.086 0.18508,1.634 -0.0742,0.9027 -0.12256,2.0634 -0.11105,2.5753 0.0184,0.8163 0.082,0.989 0.54996,1.4119 0.42918,0.3878 0.63583,0.4588 1.05233,0.3755 0.85909,-0.1718 1.08444,-0.572 1.2903,-2.3162 0.10312,-0.8738 0.20583,-2.0822 0.22739,-2.6863 l 0.037,-1.1 0.79322,-0.111 c 2.02555,-0.2882 2.53398,-1.4934 1.09463,-2.5912 -0.40838,-0.3115 -0.58225,-0.4006 -1.13165,-0.3913 z" style="fill:#3b3c3d"></path>
      <path id="path3959" d="m 179.11944,973.3431 c -0.23352,-0.001 -0.45296,0.063 -0.63457,0.1957 -0.27931,0.2043 -0.31336,0.551 -0.34901,3.58 -0.0444,3.7718 0.0506,4.4705 0.68745,5.0607 0.5522,0.5118 1.28051,0.491 1.82439,-0.053 0.38249,-0.3825 0.39424,-0.4616 0.39661,-3.8867 0.002,-3.4548 -0.007,-3.5068 -0.41776,-4.0454 -0.41362,-0.5423 -0.99335,-0.8492 -1.50711,-0.8514 z" style="fill:#3b3c3d"></path>
      <path id="path3957" d="m 185.44929,973.7926 c -0.39768,0.021 -0.54102,0.1289 -0.72447,0.4653 -0.13955,0.256 -0.51273,0.7156 -0.82494,1.0206 -0.31219,0.3051 -0.84281,1.1175 -1.18453,1.8086 -0.49984,1.0109 -0.624,1.4477 -0.624,2.2368 3.6e-4,1.3752 0.38326,2.0459 1.48596,2.6176 l 0.8884,0.4601 0.68745,-0.3067 c 0.37793,-0.1692 0.77282,-0.3921 0.87782,-0.4971 0.10499,-0.105 0.31052,-0.1956 0.45478,-0.1956 0.14426,-6e-4 0.47469,-0.11 0.74033,-0.2486 0.26563,-0.1385 0.55393,-0.2138 0.63458,-0.1639 0.36762,0.2272 1.58054,-0.7599 2.23686,-1.8191 0.3946,-0.6369 0.36517,-1.7788 -0.0688,-2.5013 -0.38412,-0.6396 -1.41437,-1.6922 -1.65517,-1.6922 -0.0815,0 -0.24903,-0.1279 -0.37545,-0.2802 -0.34758,-0.4189 -1.62254,-0.9043 -2.36378,-0.9043 -0.068,0 -0.12827,0 -0.18509,0 z" style="fill:#3b3c3d"></path>
      <path id="path3955" d="m 195.96732,973.8296 c -0.10279,0 -0.21003,0.01 -0.32258,0.021 -0.6643,0.078 -0.6991,0.4727 -0.26969,3.2892 l 0.0846,0.5499 -0.51823,-0.3807 c -0.50357,-0.3723 -1.5124,-1.73 -1.5124,-2.0359 0,-0.191 -0.29167,-0.473 -0.88311,-0.8514 -0.59042,-0.3778 -1.74679,-0.3941 -1.88785,-0.027 -0.18981,0.4947 -0.10818,1.4356 0.16393,1.8509 0.21929,0.3346 0.25164,0.7226 0.17451,2.0676 -0.0522,0.9103 -0.14091,2.0256 -0.20095,2.4801 -0.0999,0.7562 -0.0675,0.8661 0.37545,1.3009 0.27942,0.2743 0.67718,0.4809 0.94128,0.4865 0.53826,0.011 1.27479,-0.6577 1.40135,-1.2691 0.0475,-0.2294 0.11961,-0.5923 0.16393,-0.8091 l 0.0846,-0.3913 1.11579,0.5288 c 0.61467,0.2932 1.18695,0.6444 1.26914,0.7773 0.19819,0.3207 1.18429,0.3133 1.53884,-0.011 0.8657,-0.7906 0.72664,-5.3671 -0.21153,-6.8851 -0.30288,-0.49 -0.78757,-0.7148 -1.5071,-0.6927 z" style="fill:#3b3c3d"></path>
      <path id="path3953" d="m 167.42218,973.9618 c -0.42996,0.055 -0.53315,0.6321 -0.52881,1.9196 0.005,1.4008 -0.024,1.5279 -0.48651,2.0994 -0.27119,0.335 -0.58771,0.6401 -0.69803,0.6768 -0.34393,0.1147 -0.57508,-0.8271 -0.46006,-1.8667 0.0905,-0.8182 0.0499,-1.0842 -0.25912,-1.634 -0.73294,-1.3041 -1.86752,-1.3769 -2.19985,-0.1428 -0.25387,0.943 -0.25065,2.6881 0.005,3.9132 0.26695,1.2778 1.07167,2.2155 2.1787,2.5383 0.51033,0.1488 0.98284,0.1758 1.3749,0.085 0.32871,-0.076 0.64815,-0.1406 0.70861,-0.1428 0.34659,-0.013 1.93967,-1.4394 2.28446,-2.0464 0.56764,-0.9994 0.68993,-2.3996 0.31199,-3.6012 -0.26017,-0.8272 -0.39489,-1.0045 -1.05762,-1.3749 -0.539,-0.3013 -0.91598,-0.456 -1.17395,-0.4231 z" style="fill:#3b3c3d"></path>
      <path id="path3951" d="m 156.54456,974.0993 c -0.82541,0.035 -1.98192,0.6344 -2.07293,1.1105 -0.0414,0.2167 0.0254,0.5355 0.14807,0.7033 0.13004,0.1779 0.16388,0.3798 0.0793,0.4865 -0.16027,0.2023 -1.37704,2.4285 -2.02005,3.7017 -0.3212,0.636 -0.3862,0.9664 -0.30143,1.4965 0.0596,0.373 0.20303,0.7781 0.31729,0.9043 0.12142,0.1341 0.49808,0.2179 0.90955,0.2009 0.74172,-0.031 1.22449,-0.4415 1.56528,-1.3379 0.12214,-0.3212 0.32578,-0.4475 0.86725,-0.5341 1.06811,-0.1707 2.09779,-0.78 2.16812,-1.285 0.0913,-0.656 0.19566,-0.6322 0.19566,0.048 0,0.8038 0.46289,2.1557 0.86724,2.5383 0.17597,0.1665 0.31729,0.2647 0.31729,0.2168 0,-0.048 0.19334,-0.015 0.42833,0.074 0.36166,0.1375 0.50535,0.083 0.94657,-0.3385 0.51729,-0.4943 0.52431,-0.5049 0.4019,-1.7292 -0.0679,-0.6785 -0.19388,-1.4092 -0.27498,-1.6234 -0.0811,-0.2142 -0.18793,-0.6202 -0.23797,-0.9043 -0.31341,-1.7789 -2.36845,-3.6283 -4.14586,-3.7281 -0.0517,0 -0.10362,0 -0.15865,0 z" style="fill:#3b3c3d"></path>
      <path id="path3949" d="m 149.15181,974.1203 c -0.7349,-0.01 -1.64233,0.1265 -2.33205,0.4071 -1.10634,0.4501 -2.50696,1.5961 -2.89259,2.3691 -0.44429,0.8906 -0.31971,2.8562 0.27498,4.3415 0.22259,0.5561 0.81855,0.9722 1.89843,1.3379 1.06557,0.3609 2.06877,0.3966 2.33205,0.079 0.10679,-0.1286 0.28109,-0.2395 0.38603,-0.2432 0.27713,-0.01 1.207,-0.8543 1.44893,-1.3167 0.11411,-0.2181 0.15972,-0.589 0.10048,-0.825 -0.10108,-0.4028 -0.15283,-0.4227 -0.88311,-0.3226 -0.42792,0.059 -0.86526,0.1749 -0.96773,0.2592 -0.10246,0.084 -0.52775,0.2033 -0.94656,0.2644 -1.00559,0.1466 -1.36428,-0.1225 -1.47009,-1.1053 -0.0981,-0.9108 0.37461,-2.2361 0.65572,-1.8402 0.1326,0.1867 0.1445,0.169 0.0635,-0.079 -0.0667,-0.2044 0.004,-0.3946 0.19566,-0.5288 0.32953,-0.2309 0.66545,-0.246 0.59226,-0.026 -0.0256,0.077 0.0353,0.092 0.1322,0.032 0.097,-0.06 0.13701,-0.1723 0.0899,-0.2485 -0.0912,-0.1476 0.6482,-0.3361 1.56528,-0.3966 0.3061,-0.02 0.61803,-0.1329 0.69274,-0.2538 0.0747,-0.1209 0.2063,-0.2063 0.29084,-0.1904 0.36267,0.068 0.541,-0.032 0.624,-0.349 0.0563,-0.2154 0.026,-0.299 -0.0899,-0.2274 -0.11524,0.071 -0.14238,0.01 -0.074,-0.1692 0.0706,-0.1839 0.0195,-0.2803 -0.14278,-0.2803 -0.13668,0 -0.24854,-0.1092 -0.24854,-0.238 0,-0.289 -0.56069,-0.4405 -1.29558,-0.4494 z" style="fill:#3b3c3d"></path>
      <path id="path3947" d="m 186.5122,976.9758 c 0.32872,-0.01 0.57046,0.089 0.78264,0.3014 0.21393,0.214 0.20762,0.2983 -0.037,0.6716 -0.15412,0.2353 -0.40837,0.4768 -0.56582,0.5341 -0.15744,0.057 -0.46549,0.2422 -0.68746,0.4125 -0.22194,0.1703 -0.54261,0.312 -0.71389,0.312 -0.26063,0 -0.28533,-0.071 -0.15335,-0.4178 0.26218,-0.6896 1.00902,-1.7818 1.23212,-1.8032 0.0507,0 0.0958,-0.01 0.14278,-0.011 z" style="fill:#fcd116"></path>
      <path id="path3945" d="m 157.50171,977.0238 c 0.12802,0.01 0.29139,0.204 0.47064,0.5817 0.4462,0.9403 0.29692,1.14 -0.58698,0.7985 -0.1396,-0.054 -0.31094,-0.084 -0.38074,-0.069 -0.0698,0.015 -0.12692,-0.1259 -0.12692,-0.312 0,-0.1862 0.0659,-0.3385 0.14807,-0.3385 0.0822,0 0.1893,-0.1523 0.23796,-0.3384 0.0578,-0.2209 0.1384,-0.3291 0.23797,-0.3226 z" style="fill:#fcd116"></path>
      <g id="g3969" transform="translate(1.01 -2.273)">
        <path id="path3943" d="m 168.50095,991.1325 c -0.45885,0.025 -0.76031,0.2771 -0.8884,0.7456 -0.0667,0.244 -0.15812,3.3759 -0.20095,6.95909 -0.0429,3.58321 -0.0866,7.14611 -0.10047,7.92161 -0.0249,1.3915 -0.0166,1.4164 0.52881,1.9037 0.60382,0.5395 1.5022,0.6747 1.66575,0.2485 0.0522,-0.136 0.2304,-0.2909 0.3966,-0.3437 0.56937,-0.1807 0.84597,-2.0362 0.83023,-5.5842 -0.0294,-6.623 -0.16646,-10.4889 -0.38074,-10.7401 -0.12263,-0.1438 -0.2663,-0.3783 -0.31728,-0.5236 -0.051,-0.1452 -0.41276,-0.3624 -0.80908,-0.4812 -0.27261,-0.082 -0.51591,-0.1173 -0.72447,-0.1057 z" style="fill:#3b3c3d"></path>
        <path id="path3064" d="m 168.63844,1011.7666 c -0.0424,0 -0.082,0.016 -0.11634,0.037 -0.12219,0.076 -0.32066,0.1513 -0.43891,0.1692 -0.59408,0.09 -1.26854,1.7916 -0.99416,2.5066 0.0529,0.1378 0.0219,0.2983 -0.0687,0.3543 -0.20007,0.1236 0.40011,0.9246 0.91484,1.2216 0.47854,0.276 1.47574,0.1004 1.76094,-0.3068 0.12158,-0.1735 0.32712,-0.4223 0.46006,-0.5552 0.33262,-0.3326 0.52369,-1.1264 0.26969,-1.1264 -0.10875,0 -0.16081,-0.067 -0.11105,-0.148 0.1038,-0.168 -0.74349,-1.5097 -1.23741,-1.9566 -0.15339,-0.1389 -0.31188,-0.2058 -0.43891,-0.1957 z" style="fill:#3b3c3d"></path>
      </g>
    </g>
  </g>
</svg>